<?xml version="1.0" encoding="utf-8"?>
<!-- Generator: Adobe Illustrator 16.0.0, SVG Export Plug-In . SVG Version: 6.00 Build 0)  -->
<!DOCTYPE svg PUBLIC "-//W3C//DTD SVG 1.1//EN" "http://www.w3.org/Graphics/SVG/1.1/DTD/svg11.dtd">
<svg version="1.1" id="Your_Icon" xmlns="http://www.w3.org/2000/svg" xmlns:xlink="http://www.w3.org/1999/xlink" x="0px" y="0px"
	 width="100px" height="100px" viewBox="0 0 100 100" enable-background="new 0 0 100 100" xml:space="preserve">
<path fill="none" stroke="#000000" stroke-miterlimit="10" d="M50.168,4.958L11.099,27.395v45.212l39.069,22.436L88.9,72.605v-45.21
	L50.168,4.958z M20.711,34.077c3.129,0,5.666,2.537,5.666,5.666s-2.537,5.666-5.666,5.666s-5.666-2.537-5.666-5.666
	S17.582,34.077,20.711,34.077z M20.711,72.672c-3.13,0-5.668-2.537-5.668-5.668s2.538-5.668,5.668-5.668s5.668,2.537,5.668,5.668
	S23.841,72.672,20.711,72.672z M41.395,83.873c-3.13,0-5.667-2.537-5.667-5.667s2.537-5.667,5.667-5.667s5.667,2.537,5.667,5.667
	S44.525,83.873,41.395,83.873z M41.395,56.613c-3.13,0-5.668-2.538-5.668-5.668c0-3.131,2.538-5.668,5.668-5.668
	s5.668,2.538,5.668,5.668C47.063,54.075,44.525,56.613,41.395,56.613z M48.877,32.186c-3.13,0-5.667-2.537-5.667-5.667
	s2.537-5.667,5.667-5.667s5.667,2.537,5.667,5.667S52.007,32.186,48.877,32.186z M62.205,83.873c-3.13,0-5.667-2.537-5.667-5.667
	s2.537-5.667,5.667-5.667s5.667,2.537,5.667,5.667S65.335,83.873,62.205,83.873z M62.205,69.534c-3.13,0-5.667-2.537-5.667-5.667
	c0-3.131,2.537-5.667,5.667-5.667s5.667,2.536,5.667,5.667C67.872,66.997,65.335,69.534,62.205,69.534z M62.205,55.198
	c-3.131,0-5.668-2.538-5.668-5.668c0-3.131,2.537-5.668,5.668-5.668s5.668,2.538,5.668,5.668
	C67.873,52.66,65.336,55.198,62.205,55.198z M81.332,72.197c-3.131,0-5.668-2.537-5.668-5.67c0-3.129,2.537-5.664,5.668-5.664
	c3.129,0,5.668,2.535,5.668,5.664C87,69.66,84.461,72.197,81.332,72.197z M81.332,57.859c-3.131,0-5.668-2.537-5.668-5.668
	c0-3.13,2.537-5.667,5.668-5.667S87,49.062,87,52.191C87,55.322,84.463,57.859,81.332,57.859z M81.332,43.521
	c-3.131,0-5.668-2.538-5.668-5.666c0-3.131,2.537-5.668,5.668-5.668c3.129,0,5.668,2.538,5.668,5.668
	C87,40.982,84.461,43.521,81.332,43.521z"/>
</svg>
