<?xml version="1.0" encoding="utf-8"?>
<!-- Generator: Adobe Illustrator 16.0.0, SVG Export Plug-In . SVG Version: 6.00 Build 0)  -->
<!DOCTYPE svg PUBLIC "-//W3C//DTD SVG 1.1//EN" "http://www.w3.org/Graphics/SVG/1.1/DTD/svg11.dtd">
<svg version="1.1" id="Layer_1" xmlns="http://www.w3.org/2000/svg" xmlns:xlink="http://www.w3.org/1999/xlink" x="0px" y="0px"
	 width="72px" height="72px" viewBox="0 0 72 72" enable-background="new 0 0 72 72" xml:space="preserve">
<g>
	<g>
		<path fill="#FFFFFF" d="M8.193,57.7c-0.229,0-0.457-0.066-0.653-0.196c-0.33-0.219-0.528-0.589-0.528-0.984V20.88
			c0-0.475,0.285-0.903,0.722-1.088l18.538-7.824c0.364-0.155,0.782-0.115,1.112,0.104c0.33,0.219,0.528,0.588,0.528,0.984v35.639
			c0,0.476-0.285,0.904-0.722,1.089L8.652,57.607C8.504,57.67,8.349,57.7,8.193,57.7z M9.374,21.664V54.74l16.175-6.826V14.837
			L9.374,21.664z"/>
	</g>
	<g>
		<path fill="#FFFFFF" d="M45.268,57.7c-0.229,0-0.455-0.066-0.652-0.196c-0.329-0.219-0.527-0.589-0.527-0.984V20.88
			c0-0.475,0.284-0.903,0.723-1.088l18.539-7.824c0.364-0.153,0.78-0.114,1.111,0.104c0.329,0.219,0.527,0.588,0.527,0.984v35.639
			c0,0.476-0.284,0.904-0.723,1.089l-18.539,7.823C45.579,57.67,45.423,57.7,45.268,57.7z M46.448,21.664v33.075l16.178-6.826
			V14.837L46.448,21.664z"/>
	</g>
	<g>
		<path fill="#FFFFFF" d="M45.268,57.7c-0.154,0-0.312-0.03-0.459-0.093l-18.537-7.823c-0.438-0.185-0.722-0.613-0.722-1.089V13.056
			c0-0.396,0.198-0.765,0.528-0.984c0.33-0.218,0.747-0.258,1.112-0.104l18.537,7.824c0.438,0.185,0.723,0.613,0.723,1.088v35.64
			c0,0.396-0.198,0.767-0.527,0.984C45.725,57.634,45.496,57.7,45.268,57.7z M27.912,47.913l16.175,6.826V21.664l-16.175-6.827
			V47.913z"/>
	</g>
	<g>
		<path fill="#FFFFFF" d="M59.129,28.524c-0.246,0-0.49-0.094-0.679-0.281l-5.446-5.448c-0.375-0.375-0.374-0.982,0-1.357
			c0.375-0.375,0.982-0.374,1.357,0l5.445,5.448c0.375,0.375,0.375,0.982,0,1.357C59.62,28.431,59.374,28.524,59.129,28.524z"/>
	</g>
	<g>
		<path fill="#FFFFFF" d="M53.684,28.524c-0.246,0-0.492-0.094-0.68-0.281c-0.374-0.375-0.375-0.982,0-1.357l5.446-5.448
			c0.375-0.375,0.981-0.375,1.356,0s0.375,0.982,0,1.357l-5.445,5.448C54.174,28.431,53.928,28.524,53.684,28.524z"/>
	</g>
	<g>
		<path fill="#FFFFFF" d="M47.516,50.307c-0.595-0.002-1.179-0.087-1.738-0.255c-0.508-0.151-0.795-0.687-0.644-1.194
			c0.151-0.506,0.687-0.795,1.194-0.644c0.91,0.271,1.928,0.22,2.813-0.157c0.481-0.209,1.051,0.016,1.26,0.504
			c0.209,0.486-0.017,1.051-0.504,1.26C49.143,50.143,48.342,50.307,47.516,50.307z M11.906,48.479c-0.53,0-0.959-0.43-0.959-0.959
			v-3.543c0-0.531,0.43-0.961,0.959-0.961c0.529,0,0.959,0.43,0.959,0.961v3.543C12.866,48.049,12.436,48.479,11.906,48.479z
			 M43.27,48.02c-0.312,0-0.615-0.15-0.801-0.431c-0.654-0.987-1-2.139-1-3.33v-0.575c0-0.531,0.43-0.961,0.961-0.961
			c0.529,0,0.959,0.43,0.959,0.961v0.575c0,0.813,0.235,1.599,0.68,2.271c0.293,0.44,0.173,1.036-0.271,1.329
			C43.635,47.968,43.451,48.02,43.27,48.02z M52.052,47.523c-0.146,0-0.295-0.033-0.435-0.104c-0.473-0.24-0.66-0.818-0.42-1.291
			c0.297-0.583,0.447-1.212,0.445-1.869v-1.15c0-0.529,0.431-0.959,0.961-0.959c0.529,0,0.959,0.43,0.959,0.959v1.149
			c0.002,0.962-0.22,1.886-0.654,2.741C52.738,47.333,52.4,47.523,52.052,47.523z M27.167,44.438c-0.13,0-0.26-0.004-0.389-0.013
			c-0.529-0.032-0.931-0.489-0.897-1.019c0.033-0.528,0.498-0.917,1.018-0.897c0.961,0.062,1.923-0.212,2.706-0.786
			c0.428-0.313,1.028-0.219,1.341,0.207c0.313,0.428,0.221,1.028-0.207,1.342C29.696,44.035,28.462,44.438,27.167,44.438z
			 M23.66,43.035c-0.238,0-0.476-0.088-0.662-0.266c-1.027-0.979-1.68-2.291-1.838-3.694c-0.059-0.526,0.319-1.002,0.846-1.062
			c0.53-0.07,1.001,0.319,1.061,0.846c0.108,0.957,0.553,1.854,1.254,2.521c0.384,0.365,0.399,0.973,0.033,1.355
			C24.166,42.936,23.913,43.035,23.66,43.035z M11.906,41.393c-0.53,0-0.959-0.43-0.959-0.959v-3.543
			c0-0.531,0.43-0.959,0.959-0.959c0.529,0,0.959,0.43,0.959,0.959v3.543C12.866,40.963,12.436,41.393,11.906,41.393z M42.43,41.1
			c-0.531,0-0.961-0.43-0.961-0.959v-3.543c0-0.53,0.43-0.958,0.961-0.958c0.529,0,0.959,0.43,0.959,0.958v3.543
			C43.389,40.67,42.959,41.1,42.43,41.1z M32.106,40.576c-0.076,0-0.153-0.01-0.23-0.028c-0.515-0.127-0.829-0.646-0.702-1.161
			c0.08-0.322,0.12-0.658,0.12-0.994v-2.307c0-0.53,0.43-0.959,0.959-0.959c0.529,0,0.959,0.43,0.959,0.959v2.307
			c0,0.49-0.059,0.979-0.176,1.453C32.929,40.283,32.538,40.576,32.106,40.576z M52.604,40.525c-0.529,0-0.959-0.43-0.959-0.959
			v-3.543c0-0.53,0.43-0.959,0.959-0.959c0.53,0,0.961,0.43,0.961,0.959v3.543C53.563,40.098,53.134,40.525,52.604,40.525z
			 M22.081,36.386c-0.53,0-0.959-0.43-0.959-0.959v-3.543c0-0.53,0.43-0.959,0.959-0.959c0.529,0,0.959,0.43,0.959,0.959v3.543
			C23.041,35.956,22.611,36.386,22.081,36.386z M11.906,34.306c-0.53,0-0.959-0.43-0.959-0.959v-3.543
			c0-0.53,0.43-0.959,0.959-0.959c0.529,0,0.959,0.43,0.959,0.959v3.543C12.866,33.876,12.436,34.306,11.906,34.306z M42.43,34.014
			c-0.531,0-0.961-0.43-0.961-0.959v-3.543c0-0.53,0.43-0.959,0.961-0.959c0.529,0,0.959,0.43,0.959,0.959v3.543
			C43.389,33.584,42.959,34.014,42.43,34.014z M32.253,33.502c-0.53,0-0.959-0.43-0.959-0.959V29c0-0.53,0.43-0.959,0.959-0.959
			c0.529,0,0.959,0.43,0.959,0.959v3.543C33.213,33.072,32.783,33.502,32.253,33.502z M52.604,33.44
			c-0.529,0-0.959-0.43-0.959-0.959v-1.94c0-0.53,0.43-0.959,0.959-0.959c0.53,0,0.961,0.43,0.961,0.959v1.94
			C53.563,33.01,53.134,33.44,52.604,33.44z M22.081,29.3c-0.53,0-0.959-0.43-0.959-0.959v-1.904c0-0.448-0.071-0.888-0.211-1.306
			c-0.168-0.503,0.104-1.046,0.606-1.214c0.505-0.167,1.046,0.104,1.214,0.606c0.206,0.616,0.31,1.26,0.31,1.915v1.904
			C23.041,28.87,22.611,29.3,22.081,29.3z M11.91,27.221c-0.011,0-0.022,0-0.033,0c-0.529-0.018-0.944-0.462-0.926-0.992
			c0.048-1.414,0.595-2.773,1.541-3.827c0.353-0.395,0.959-0.427,1.355-0.074c0.395,0.354,0.427,0.961,0.074,1.355
			c-0.646,0.719-1.019,1.647-1.052,2.611C12.851,26.813,12.425,27.221,11.91,27.221z M41.865,27.02c-0.348,0-0.684-0.189-0.854-0.52
			c-0.445-0.859-1.18-1.539-2.068-1.914c-0.488-0.206-0.719-0.768-0.514-1.257c0.207-0.489,0.774-0.715,1.258-0.512
			c1.304,0.549,2.379,1.543,3.028,2.801c0.243,0.471,0.06,1.05-0.411,1.293C42.164,26.985,42.014,27.02,41.865,27.02z
			 M33.076,26.577c-0.18,0-0.361-0.05-0.523-0.156c-0.444-0.29-0.569-0.884-0.279-1.328c0.775-1.188,1.945-2.069,3.294-2.483
			c0.508-0.154,1.043,0.129,1.2,0.636c0.154,0.507-0.131,1.043-0.637,1.199c-0.921,0.282-1.72,0.885-2.25,1.697
			C33.696,26.424,33.389,26.577,33.076,26.577z M19.663,23.065c-0.172,0-0.346-0.046-0.503-0.143
			c-0.819-0.505-1.826-0.704-2.759-0.57c-0.529,0.076-1.011-0.289-1.086-0.813c-0.075-0.524,0.289-1.011,0.813-1.086
			c1.364-0.197,2.839,0.095,4.04,0.837c0.451,0.278,0.591,0.87,0.313,1.32C20.299,22.904,19.985,23.065,19.663,23.065z"/>
	</g>
</g>
</svg>
