<?xml version="1.0" encoding="utf-8"?>
<!-- Generator: Adobe Illustrator 16.0.0, SVG Export Plug-In . SVG Version: 6.00 Build 0)  -->
<!DOCTYPE svg PUBLIC "-//W3C//DTD SVG 1.1//EN" "http://www.w3.org/Graphics/SVG/1.1/DTD/svg11.dtd">
<svg version="1.1" id="Layer_1" xmlns="http://www.w3.org/2000/svg" xmlns:xlink="http://www.w3.org/1999/xlink" x="0px" y="0px"
	 width="100px" height="92.49px" viewBox="0 0 100 92.49" enable-background="new 0 0 100 92.49" xml:space="preserve">
<path fill="none" d="M13.314,76.672l-4.493,3.017c-0.297,0.199-0.573,0.468-0.785,0.783c-0.882,1.315-0.531,3.1,0.785,3.981
	c1.316,0.882,3.099,0.53,3.981-0.785l3.015-4.492c0.395-0.59,0.419-1.384,0-2.011C15.262,76.339,14.141,76.117,13.314,76.672z"/>
<path fill="#FFFFFF" d="M98.777,29.733C93.419,8.628,71.967-4.137,50.861,1.222C29.756,6.581,16.989,28.033,22.35,49.14
	c0.664,2.617,1.578,5.105,2.707,7.447L3.644,74.513c-0.435,0.37-0.891,0.817-1.271,1.271c-3.607,4.308-3.038,10.725,1.271,14.332
	s10.727,3.039,14.333-1.27l16.568-19.791c9.433,8.271,22.641,11.916,35.721,8.596C91.372,72.292,104.139,50.839,98.777,29.733z
	 M15.816,79.176l-3.015,4.492c-0.882,1.315-2.665,1.668-3.981,0.785c-1.316-0.884-1.667-2.666-0.785-3.981
	c0.212-0.315,0.488-0.584,0.785-0.783l4.493-3.017c0.827-0.555,1.948-0.333,2.502,0.493C16.236,77.792,16.211,78.586,15.816,79.176z
	 M59.962,61.231c-7.567,4.426-4.851-2.662-11.828-3.906c-3.863-0.689-9.321-2.321-12.595-6.375
	c-1.819-2.251-2.615-9.016-1.973-10.375c1.406-4.019,3.287-10.432,7.41-12.896c4.881-2.915,8.604-1.701,13.292-0.005
	c5.86,2.122,13.693,5.06,12.303,11.776c-0.332,1.602-0.698,3.767-0.666,5.367c0.041,1.908,0.164,2.237,0.705,3.915
	C67.758,52.289,63.382,59.231,59.962,61.231z M77.979,48.069c-0.226,0.046-0.453,0.068-0.677,0.068
	c-1.573,0-2.979-1.104-3.307-2.705l-4.043-19.858c-0.374-1.828,0.807-3.612,2.635-3.984c1.829-0.374,3.611,0.809,3.985,2.636
	l4.044,19.858C80.99,45.914,79.809,47.696,77.979,48.069z M85.021,48.378c-0.071,0.003-0.143,0.005-0.213,0.005
	c-1.771,0-3.259-1.377-3.369-3.169L80.213,25.45c-0.115-1.862,1.301-3.465,3.161-3.581c1.862-0.128,3.467,1.3,3.582,3.163
	l1.228,19.765C88.299,46.658,86.883,48.261,85.021,48.378z"/>
<path fill="#FFFFFF" d="M51.811,36.706c-3.822-0.71-7.495,1.812-8.206,5.633c-0.71,3.821,1.812,7.495,5.634,8.204
	c3.822,0.712,7.494-1.812,8.205-5.633C58.156,41.089,55.63,37.415,51.811,36.706z M53.232,47.569
	c-0.807,0.554-1.739,0.842-2.698,0.842c-0.294,0-0.589-0.027-0.885-0.082l0.206-1.107c0.959,0.18,1.935-0.025,2.741-0.582
	c0.807-0.555,1.348-1.387,1.527-2.348l1.107,0.205C54.997,45.753,54.289,46.844,53.232,47.569z"/>
</svg>
