<?xml version="1.0" encoding="utf-8"?>
<!-- Generator: Adobe Illustrator 16.0.0, SVG Export Plug-In . SVG Version: 6.00 Build 0)  -->
<!DOCTYPE svg PUBLIC "-//W3C//DTD SVG 1.1//EN" "http://www.w3.org/Graphics/SVG/1.1/DTD/svg11.dtd">
<svg version="1.1" id="Layer_1" xmlns="http://www.w3.org/2000/svg" xmlns:xlink="http://www.w3.org/1999/xlink" x="0px" y="0px"
	 width="100px" height="100px" viewBox="0 0 100 100" enable-background="new 0 0 100 100" xml:space="preserve">
<g>
	<path fill="#FFFFFF" d="M75.773,6.375c-1.906,2.5-2.494,4.715-3.791,9.576L61.248,56.059l15.021,4.019
		C82.291,35.921,82.129,18.337,75.773,6.375z"/>
	<path fill="#FFFFFF" d="M77.359,2.217c-0.229-0.438-0.799-1.1-1.646-1.1c-2.197,0-4.557,4.34-7.217,13.28
		c-4.229,15.783-11.734,43.85-11.734,43.85l-0.127,0.479l2.076,0.555l-8.363,31.224c-0.748,2.797,0.278,4.565,3.074,5.312
		l4.975,1.334c3.302,0.885,10.654-9.363,12.486-16.217c1.674-6.242,1.838-16.176-0.254-18.464l8.336,2.233l0.129-0.479
		C91.127,19.274,78.393,3.408,77.359,2.217z M76.27,60.076l-15.021-4.018l10.733-40.107c1.297-4.861,1.886-7.076,3.791-9.576
		C82.129,18.337,82.291,35.921,76.27,60.076z"/>
</g>
<g>
	<path fill="#FFFFFF" d="M43.148,55.876c-3.3-20.115-9.106-33.314-17.737-40.304c-0.581,2.434-0.306,4.305,0.288,8.321l0.055,0.392
		l4.874,33.42L43.148,55.876z"/>
	<path fill="#FFFFFF" d="M39.896,59.667l7.001-1.021l-0.071-0.489C41.29,20.207,26.48,12.273,25.25,11.674
		c-0.16-0.124-0.589-0.415-1.125-0.415c-0.429,0-0.824,0.19-1.139,0.542c-1.209,1.36-1.408,5.305-0.61,12.081
		c1.944,13.338,5.41,37.054,5.41,37.054l0.071,0.491l1.837-0.271l3.834,26.302c0.347,2.362,1.701,3.367,4.063,3.024l4.207-0.613
		c2.788-0.407,5.015-10.57,4.169-16.359C45.215,68.338,42.208,60.953,39.896,59.667z M25.754,24.285l-0.055-0.392
		c-0.593-4.017-0.868-5.887-0.288-8.321c8.631,6.99,14.437,20.188,17.737,40.304l-12.521,1.829L25.754,24.285z"/>
</g>
</svg>
