<svg xmlns="http://www.w3.org/2000/svg" xmlns:xlink="http://www.w3.org/1999/xlink" version="1.1" id="Layer_1" x="0px" y="0px" width="59.2920353982px" height="100px" viewBox="0 0 67 113" enable-background="new 0 0 67 113" xml:space="preserve">
<path d="M24.993,16.754c0,3.198,1.265,5.997,3.157,7.539v1.771c-3.664,0.254-6.853,1.078-9.003,2.24  c-2.016,0.465-5.211,4.438-7.713,9.802c-1.521,3.262-2.483,6.39-2.792,8.757c-0.395,1.16-0.774,2.407-1.125,3.714  c-0.5,1.862-0.886,3.649-1.155,5.269c-1.162,0.618-2.01,2.534-2.01,4.805c0,2.77,1.261,5.016,2.816,5.016s2.816-2.246,2.816-5.016  c0-0.42-0.032-0.825-0.087-1.214c0.91-2.001,1.834-4.614,2.614-7.522c0.274-1.022,0.514-2.022,0.719-2.984  c1.602-1.76,3.361-4.486,4.868-7.717c0.57-1.223,1.061-2.426,1.469-3.578c-0.083,1.792-0.046,3.744,0.132,5.78  c0.391,4.465,1.375,8.418,2.621,11.085c-0.997,2.544-1.754,5.867-2.075,9.539c-0.108,1.245-0.16,2.458-0.161,3.624l-0.008-0.001  l-0.945,10.815h-0.006v23.973c-3.522,0.269-6.166,1.396-6.166,2.747c0,1.55,3.486,2.808,7.787,2.808c4.3,0,7.786-1.257,7.786-2.808  c0-0.349-0.184-0.681-0.506-0.989h1.213v-25.73h-0.03l0.667-7.631c0.189-0.786,0.354-1.614,0.5-2.467V8.088  C27.316,8.821,24.993,12.42,24.993,16.754z"/>
<path d="M59.154,57.845c-0.259-1.961-0.717-4.25-1.364-6.667c-0.351-1.307-0.73-2.554-1.125-3.714  c-0.31-2.367-1.271-5.495-2.792-8.757c-2.505-5.372-5.706-9.348-7.722-9.804c-1.739-1.229-4.541-2.174-7.894-2.627V24.16  c1.806-1.566,3.002-4.297,3.002-7.406c0-4.535-2.544-8.268-5.813-8.75v59.038c0.125,1.021,0.28,2.012,0.467,2.956l0.742,8.479h-0.03  v25.73h1.097c-0.11,0.19-0.17,0.387-0.17,0.589c0,1.55,3.41,2.808,7.617,2.808s7.616-1.258,7.616-2.808  c0-1.353-2.592-2.481-6.044-2.748V78.477h-0.006l-0.746-8.523c0.073-1.664,0.037-3.454-0.126-5.314  c-0.362-4.142-1.279-7.841-2.469-10.478c1.052-2.617,1.868-6.179,2.215-10.146c0.178-2.036,0.215-3.988,0.132-5.78  c0.408,1.152,0.899,2.355,1.469,3.578c1.507,3.231,3.266,5.957,4.868,7.717c0.206,0.962,0.445,1.962,0.72,2.984  c0.617,2.304,1.325,4.423,2.046,6.2c-0.288,0.787-0.458,1.726-0.458,2.737c0,2.77,1.261,5.016,2.815,5.016  c1.556,0,2.815-2.246,2.815-5.016C60.016,60.034,59.685,58.757,59.154,57.845z"/>
</svg>