<?xml version="1.0" encoding="utf-8"?>
<!-- Generator: Adobe Illustrator 16.0.0, SVG Export Plug-In . SVG Version: 6.00 Build 0)  -->
<!DOCTYPE svg PUBLIC "-//W3C//DTD SVG 1.1//EN" "http://www.w3.org/Graphics/SVG/1.1/DTD/svg11.dtd">
<svg version="1.1" id="Layer_1" xmlns="http://www.w3.org/2000/svg" xmlns:xlink="http://www.w3.org/1999/xlink" x="0px" y="0px"
	 width="59.292px" height="100px" viewBox="0 0 59.292 100" enable-background="new 0 0 59.292 100" xml:space="preserve">
<path fill="#FFFFFF" d="M22.118,14.827c0,2.83,1.12,5.307,2.794,6.671v1.567c-3.243,0.225-6.065,0.954-7.967,1.982
	c-1.784,0.412-4.612,3.927-6.826,8.674c-1.346,2.887-2.197,5.655-2.471,7.75c-0.35,1.026-0.685,2.13-0.996,3.287
	c-0.442,1.648-0.784,3.229-1.022,4.663c-1.028,0.547-1.778,2.243-1.778,4.252c0,2.451,1.116,4.438,2.492,4.438
	s2.492-1.987,2.492-4.438c0-0.372-0.028-0.73-0.077-1.074c0.805-1.771,1.623-4.083,2.313-6.657c0.242-0.904,0.455-1.789,0.636-2.641
	c1.417-1.558,2.974-3.97,4.308-6.829c0.504-1.083,0.939-2.147,1.3-3.167c-0.073,1.586-0.041,3.313,0.117,5.115
	c0.346,3.951,1.217,7.449,2.32,9.81c-0.882,2.251-1.552,5.192-1.836,8.441c-0.096,1.103-0.142,2.176-0.143,3.208l-0.007-0.001
	l-0.836,9.57h-0.005v21.215c-3.117,0.238-5.457,1.236-5.457,2.432c0,1.371,3.085,2.484,6.891,2.484c3.805,0,6.89-1.111,6.89-2.484
	c0-0.309-0.163-0.603-0.448-0.875h1.073V69.45h-0.026l0.59-6.753c0.167-0.695,0.313-1.428,0.442-2.184V7.158
	C24.173,7.806,22.118,10.991,22.118,14.827z"/>
<path fill="#FFFFFF" d="M52.349,51.19c-0.229-1.735-0.635-3.761-1.207-5.9c-0.311-1.156-0.646-2.26-0.996-3.287
	c-0.274-2.095-1.125-4.863-2.471-7.75c-2.217-4.754-5.05-8.272-6.834-8.676c-1.539-1.088-4.018-1.924-6.985-2.325V21.38
	c1.599-1.386,2.656-3.802,2.656-6.554c0-4.013-2.251-7.317-5.144-7.744v52.246c0.109,0.903,0.247,1.78,0.412,2.616l0.657,7.504
	h-0.026v22.77h0.971c-0.098,0.168-0.15,0.342-0.15,0.521c0,1.371,3.018,2.484,6.74,2.484c3.724,0,6.74-1.113,6.74-2.484
	c0-1.197-2.294-2.195-5.349-2.432V69.449h-0.005l-0.66-7.543c0.064-1.473,0.032-3.057-0.111-4.703
	c-0.32-3.665-1.133-6.938-2.186-9.272c0.931-2.316,1.652-5.468,1.96-8.979c0.157-1.802,0.19-3.529,0.116-5.115
	c0.361,1.02,0.797,2.084,1.301,3.167c1.334,2.859,2.891,5.272,4.309,6.83c0.182,0.851,0.393,1.736,0.637,2.641
	c0.546,2.039,1.172,3.914,1.811,5.486c-0.255,0.696-0.405,1.528-0.405,2.423c0,2.451,1.116,4.438,2.491,4.438
	c1.377,0,2.49-1.987,2.49-4.438C53.111,53.127,52.818,51.997,52.349,51.19z"/>
</svg>
